<svg width="17" height="18" viewBox="0 0 17 18" fill="none" xmlns="http://www.w3.org/2000/svg">
    <path d="M8.38086 11.25C5.89558 11.25 3.88086 9.23528 3.88086 6.75V2.58333C3.88086 2.27295 3.88086 2.11775 3.92609 1.99348C4.00191 1.78516 4.16602 1.62105 4.37434 1.54523C4.49861 1.5 4.65381 1.5 4.96419 1.5H11.7975C12.1079 1.5 12.2631 1.5 12.3874 1.54523C12.5957 1.62105 12.7598 1.78516 12.8356 1.99348C12.8809 2.11775 12.8809 2.27295 12.8809 2.58333V6.75C12.8809 9.23528 10.8661 11.25 8.38086 11.25ZM8.38086 11.25V13.5M12.8809 3H14.7559C15.1053 3 15.28 3 15.4179 3.05709C15.6016 3.13321 15.7476 3.27922 15.8238 3.46299C15.8809 3.60082 15.8809 3.77554 15.8809 4.125V4.5C15.8809 5.19748 15.8809 5.54622 15.8042 5.83234C15.5961 6.6088 14.9897 7.21528 14.2132 7.42333C13.9271 7.5 13.5783 7.5 12.8809 7.5M3.88086 3H2.00586C1.6564 3 1.48168 3 1.34385 3.05709C1.16008 3.13321 1.01407 3.27922 0.93795 3.46299C0.880859 3.60082 0.880859 3.77554 0.880859 4.125V4.5C0.880859 5.19748 0.880859 5.54622 0.957526 5.83234C1.16558 6.6088 1.77206 7.21528 2.54852 7.42333C2.83464 7.5 3.18338 7.5 3.88086 7.5M4.96419 16.5H11.7975C11.9816 16.5 12.1309 16.3508 12.1309 16.1667C12.1309 14.6939 10.937 13.5 9.46419 13.5H7.29753C5.82477 13.5 4.63086 14.6939 4.63086 16.1667C4.63086 16.3508 4.7801 16.5 4.96419 16.5Z"
          stroke="#06082C" stroke-width="1.35" stroke-linecap="round" stroke-linejoin="round"/>
</svg>
