<svg width="17" height="12" viewBox="0 0 17 12" fill="none" xmlns="http://www.w3.org/2000/svg">
    <path d="M11.5628 2.81956C13.3202 4.57692 13.3202 7.42616 11.5628 9.18352M5.19888 9.1835C3.44152 7.42614 3.44152 4.5769 5.19888 2.81954M3.07756 11.3048C0.148626 8.37591 0.148626 3.62717 3.07756 0.698242M13.6842 0.698277C16.6131 3.62721 16.6131 8.37595 13.6842 11.3049M9.88086 6.00154C9.88086 6.82997 9.20929 7.50154 8.38086 7.50154C7.55243 7.50154 6.88086 6.82997 6.88086 6.00154C6.88086 5.17312 7.55243 4.50154 8.38086 4.50154C9.20929 4.50154 9.88086 5.17312 9.88086 6.00154Z"
          stroke="#9395B8" stroke-width="1.38462" stroke-linecap="round" stroke-linejoin="round"/>
</svg>
