<svg width="109.946289" height="16.288086" viewBox="0 0 109.946 16.2881" fill="none" xmlns="http://www.w3.org/2000/svg" xmlns:xlink="http://www.w3.org/1999/xlink">
    <desc>
        Created with Pixso.
    </desc>
    <defs>
        <clipPath id="clip4_275033">
            <rect id="Layer_1" rx="-0.016451" width="109.913139" height="16.255255" transform="translate(0.016451 0.016451)" fill="white" fill-opacity="0"/>
        </clipPath>
    </defs>
    <rect id="Layer_1" rx="-0.016451" width="109.913139" height="16.255255" transform="translate(0.016451 0.016451)" fill="#FFFFFF" fill-opacity="0"/>
    <g clip-path="url(#clip4_275033)">
        <path id="Vector" d="M51.89 0.14L46.34 0.14C44.64 0.14 43.23 1.4 43.01 3.1L41.41 16.13L44.67 16.13L45.26 11.36L47.54 11.36L50.08 16.13L53.85 16.13L50.75 10.27L54.22 6.07C56.48 3.33 55.22 0.14 51.89 0.14L51.89 0.14ZM51.08 4.73L48.63 7.77C48.48 7.95 48.23 8.06 48 8.06L45.67 8.06L46.23 3.4L50.56 3.4C51.26 3.4 51.56 4.1 51.08 4.73L51.08 4.73Z" fill="#000000" fill-opacity="1.000000" fill-rule="nonzero"/>
        <path id="Vector" d="M80.41 0.14L74.86 0.14C73.16 0.14 71.75 1.4 71.53 3.1L69.93 16.13L73.19 16.13L73.79 11.36L76.06 11.36L78.6 16.13L82.37 16.13L79.28 10.27L82.74 6.07C85 3.33 83.74 0.14 80.41 0.14L80.41 0.14ZM79.6 4.73L77.15 7.77C77.01 7.95 76.75 8.06 76.52 8.06L74.19 8.06L74.75 3.4L79.08 3.4C79.78 3.4 80.08 4.1 79.6 4.73L79.6 4.73Z" fill="#FF2410" fill-opacity="1.000000" fill-rule="nonzero"/>
        <path id="Vector" d="M23.87 0.14L18.31 0.14C16.61 0.14 15.21 1.4 14.98 3.1L13.39 16.13L16.65 16.13L17.24 11.36L20.57 11.36C21.39 11.36 22.2 10.99 22.76 10.29L26.24 6.07C28.64 3.14 27.2 0.14 23.87 0.14ZM23.09 4.73L20.65 7.77C20.5 7.95 20.24 8.06 20.02 8.06L17.65 8.06L18.2 3.4L22.57 3.4C23.28 3.4 23.57 4.1 23.09 4.73L23.09 4.73Z" fill="#000000" fill-opacity="1.000000" fill-rule="nonzero"/>
        <path id="Vector" d="M35.31 0C31.9 0 28.87 2.81 28.42 6.36L27.98 9.88C27.53 13.43 29.9 16.28 33.31 16.28C36.71 16.28 39.75 13.43 40.19 9.88L40.64 6.36C41.08 2.81 38.71 0 35.31 0ZM37.53 6.36L37.08 9.92C36.86 11.62 35.38 13.03 33.71 13.03C32.05 13.03 30.86 11.62 31.09 9.92L31.53 6.36C31.75 4.62 33.23 3.25 34.9 3.25C36.56 3.25 37.75 4.62 37.53 6.36Z" fill="#000000" fill-opacity="1.000000" fill-rule="nonzero"/>
        <path id="Vector" d="M1.36 4.95C1.03 7.73 2.81 9.77 5.58 9.77L7.36 9.77C8.25 9.77 8.84 10.43 8.73 11.32C8.62 12.21 7.88 12.88 6.99 12.88L0.4 12.88L0 16.13L6.66 16.13C9.4 16.13 11.66 14.1 11.99 11.36C12.32 8.58 10.55 6.51 7.77 6.51L5.99 6.51C5.1 6.51 4.51 5.84 4.62 4.95C4.73 4.07 5.47 3.4 6.36 3.4L12.95 3.4L13.36 0.14L6.77 0.14C3.99 0.14 1.7 2.18 1.36 4.95Z" fill="#000000" fill-opacity="1.000000" fill-rule="nonzero"/>
        <path id="Vector" d="M101.46 6.51C101.68 4.77 103.16 3.4 104.83 3.4L109.53 3.4L109.94 0.14L105.23 0.14C101.83 0.14 98.79 2.96 98.35 6.51L97.94 9.73C97.5 13.28 99.83 16.1 103.24 16.13L107.97 16.13L108.37 12.88L103.64 12.88C101.98 12.84 100.83 11.47 101.05 9.77L101.46 6.51L101.46 6.51Z" fill="#FF2410" fill-opacity="1.000000" fill-rule="nonzero"/>
        <path id="Vector" d="M85.87 3.1L84.65 13.17C84.43 14.88 85.54 16.13 87.24 16.13L95.13 16.13L95.54 12.88L87.98 12.88L88.35 9.77L94.68 9.77L95.09 6.51L88.76 6.51L89.13 3.4L96.68 3.4L97.09 0.14L89.21 0.14C87.5 0.14 86.1 1.4 85.87 3.1L85.87 3.1Z" fill="#FF2410" fill-opacity="1.000000" fill-rule="nonzero"/>
        <path id="Vector" d="M57.22 3.4L61.74 3.4L60.18 16.13L63.44 16.13L65 3.4L69.51 3.4L69.92 0.14L57.63 0.14L57.22 3.4Z" fill="#000000" fill-opacity="1.000000" fill-rule="nonzero"/>
    </g>
</svg>
