<svg width="19" height="18" viewBox="0 0 19 18" fill="none" xmlns="http://www.w3.org/2000/svg">
    <path d="M12.3806 6.75V4.5C12.3806 2.84315 11.0375 1.5 9.38065 1.5C7.72379 1.5 6.38065 2.84315 6.38065 4.5V6.75M3.07465 7.76397L2.62465 12.564C2.4967 13.9287 2.43273 14.6111 2.65919 15.1382C2.85812 15.6012 3.20674 15.984 3.64916 16.2253C4.15279 16.5 4.83817 16.5 6.20893 16.5H12.5524C13.9231 16.5 14.6085 16.5 15.1121 16.2253C15.5546 15.984 15.9032 15.6012 16.1021 15.1382C16.3286 14.6111 16.2646 13.9287 16.1366 12.564L15.6866 7.76397C15.5786 6.61151 15.5246 6.03528 15.2654 5.59962C15.0371 5.21594 14.6999 4.90883 14.2966 4.71738C13.8386 4.5 13.2599 4.5 12.1024 4.5L6.65893 4.5C5.50142 4.5 4.92266 4.5 4.46471 4.71738C4.0614 4.90883 3.72415 5.21594 3.49589 5.59962C3.23672 6.03528 3.18269 6.61151 3.07465 7.76397Z"
          stroke="#06082C" stroke-width="1.5" stroke-linecap="round" stroke-linejoin="round"/>
</svg>
