<svg width="40" height="40" viewBox="0 0 40 40" fill="none" xmlns="http://www.w3.org/2000/svg">
    <rect width="40" height="40" rx="10" fill="#EEF0F7"/>
    <path d="M26.6666 27.5C26.6666 26.337 26.6666 25.7555 26.5231 25.2824C26.1999 24.217 25.3662 23.3834 24.3009 23.0602C23.8277 22.9167 23.2462 22.9167 22.0832 22.9167H17.9166C16.7536 22.9167 16.1721 22.9167 15.699 23.0602C14.6336 23.3834 13.8 24.217 13.4768 25.2824C13.3333 25.7555 13.3333 26.337 13.3333 27.5M23.7499 16.25C23.7499 18.3211 22.071 20 19.9999 20C17.9289 20 16.2499 18.3211 16.2499 16.25C16.2499 14.1789 17.9289 12.5 19.9999 12.5C22.071 12.5 23.7499 14.1789 23.7499 16.25Z"
          stroke="#06082C" stroke-width="1.5" stroke-linecap="round" stroke-linejoin="round"/>
</svg>
