<svg width="19" height="18" viewBox="0 0 19 18" fill="none" xmlns="http://www.w3.org/2000/svg">
    <path d="M16.8809 15.75V14.25C16.8809 12.8521 15.9248 11.6775 14.6309 11.3445M12.0059 2.46807C13.1053 2.91311 13.8809 3.99098 13.8809 5.25C13.8809 6.50902 13.1053 7.58689 12.0059 8.03193M13.1309 15.75C13.1309 14.3522 13.1309 13.6533 12.9025 13.1019C12.598 12.3669 12.014 11.7828 11.2789 11.4784C10.7276 11.25 10.0287 11.25 8.63086 11.25H6.38086C4.98303 11.25 4.28412 11.25 3.73281 11.4784C2.99772 11.7828 2.4137 12.3669 2.10922 13.1019C1.88086 13.6533 1.88086 14.3522 1.88086 15.75M10.5059 5.25C10.5059 6.90685 9.16271 8.25 7.50586 8.25C5.849 8.25 4.50586 6.90685 4.50586 5.25C4.50586 3.59315 5.849 2.25 7.50586 2.25C9.16271 2.25 10.5059 3.59315 10.5059 5.25Z"
          stroke="#9395B8" stroke-width="1.35" stroke-linecap="round" stroke-linejoin="round"/>
</svg>
